<svg width="140" height="140" viewBox="0 0 140 140" fill="none" xmlns="http://www.w3.org/2000/svg">
<path d="M140 70C140 78.7704 128.297 85.1784 125.12 92.8084C121.943 100.438 125.473 113.526 119.5 119.5C113.526 125.473 100.764 121.808 92.8355 125.093C84.9069 128.379 78.7975 140 70 140C61.2025 140 54.8216 128.27 47.1916 125.093C39.5617 121.916 26.474 125.473 20.5004 119.5C14.5267 113.526 18.1924 100.737 14.9069 92.8084C11.6214 84.8797 0 78.7704 0 70C0 61.2296 11.73 54.8216 14.9069 47.1645C18.0838 39.5074 14.5539 26.474 20.5004 20.5004C26.4468 14.5268 39.263 18.1652 47.1916 14.8797C55.1203 11.5943 61.2296 0 70 0C78.7704 0 85.1784 11.73 92.8355 14.8797C100.493 18.0295 113.526 14.5268 119.5 20.5004C125.473 26.474 121.835 39.2358 125.12 47.1645C128.406 55.0931 140 61.121 140 70Z" fill="#448E08"/>
<path d="M135 70C135 78.1439 124.133 84.0943 121.183 91.1792C118.233 98.2642 121.511 110.417 115.964 115.964C110.417 121.511 98.5667 118.107 91.2044 121.158C83.8421 124.209 78.1691 135 70 135C61.8309 135 55.9058 124.108 48.8208 121.158C41.7359 118.208 29.583 121.511 24.036 115.964C18.4891 110.417 21.8929 98.5415 18.8421 91.1792C15.7913 83.8169 5 78.1439 5 70C5 61.8561 15.8921 55.9057 18.8421 48.7956C21.7921 41.6854 18.5143 29.583 24.036 24.0361C29.5578 18.4891 41.4585 21.8677 48.8208 18.8169C56.1831 15.7661 61.8561 5 70 5C78.1439 5 84.0943 15.8922 91.2044 18.8169C98.3146 21.7417 110.417 18.4891 115.964 24.0361C121.511 29.583 118.132 41.4333 121.183 48.7956C124.234 56.1579 135 61.7552 135 70Z" fill="white"/>
<g clip-path="url(#clip0_147_531)">
<mask id="mask0_147_531" style="mask-type:luminance" maskUnits="userSpaceOnUse" x="45" y="45" width="50" height="50">
<path d="M95 45H45V94.9987H95V45Z" fill="white"/>
</mask>
<g mask="url(#mask0_147_531)">
<path d="M92.5 78.3325H90.1992L90.8333 61.8407C90.8764 60.7924 90.5845 59.7576 90 58.8864V49.9999C89.9986 48.6742 89.4714 47.4033 88.534 46.466C87.5966 45.5286 86.3257 45.0014 85 45H50C48.6743 45.0014 47.4034 45.5286 46.466 46.466C45.5286 47.4033 45.0014 48.6742 45 49.9999V84.999C45.0014 86.3246 45.5286 87.5955 46.466 88.5329C47.4034 89.4702 48.6743 89.9974 50 89.9988H76.0104C75.8009 90.8465 75.5024 91.6696 75.1198 92.4545C74.984 92.721 74.9188 93.0179 74.9305 93.3168C74.9421 93.6157 75.0302 93.9066 75.1862 94.1618C75.3423 94.4169 75.5611 94.6278 75.8219 94.7744C76.0827 94.9209 76.3767 94.9981 76.6758 94.9987H81.0912C81.4276 94.9997 81.7566 94.8994 82.0353 94.7108C82.314 94.5223 82.5295 94.2542 82.6537 93.9414L83.3333 92.2488L84.013 93.9414C84.1368 94.2545 84.3521 94.5229 84.6309 94.7115C84.9097 94.9001 85.2389 95.0002 85.5755 94.9987H86.8906C87.2436 94.9991 87.5878 94.8883 87.8741 94.6819C88.1605 94.4755 88.3745 94.184 88.4857 93.849L88.5872 93.5456L89.056 94.25C89.2093 94.4808 89.4174 94.67 89.6616 94.8009C89.9059 94.9317 90.1786 95.0001 90.4557 95H91.9427C92.2821 95.0003 92.6142 94.9021 92.8988 94.7172C93.1834 94.5322 93.4081 94.2686 93.5456 93.9584C94.0885 92.711 95.0013 89.7814 95.0013 84.1656V80.8324C95.0013 80.1694 94.7379 79.5335 94.2691 79.0647C93.8002 78.5958 93.1643 78.3325 92.5013 78.3325H92.5ZM93.3333 80.8324V83.3323H78.3333V80.8324C78.3333 80.6114 78.4211 80.3994 78.5774 80.2432C78.7337 80.0869 78.9457 79.9991 79.1667 79.9991H92.5C92.6095 79.9989 92.7179 80.0204 92.8191 80.0622C92.9203 80.104 93.0122 80.1654 93.0896 80.2428C93.167 80.3202 93.2284 80.4121 93.2702 80.5133C93.3121 80.6145 93.3335 80.7229 93.3333 80.8324ZM83.1354 78.3325L82.5 61.8082V61.6415C82.4998 61.198 82.5881 60.7589 82.7597 60.3499C82.9312 59.9409 83.1827 59.5703 83.4993 59.2597C83.8159 58.9491 84.1912 58.7048 84.6034 58.541C85.0156 58.3773 85.4563 58.2974 85.8998 58.306C86.3432 58.3147 86.7804 58.4117 87.1859 58.5914C87.5914 58.7712 87.9569 59.03 88.2612 59.3527C88.5654 59.6754 88.8022 60.0556 88.9576 60.471C89.1131 60.8863 89.1842 61.3285 89.1667 61.7717L88.5312 78.3325H83.1354ZM50 46.6666H85C85.4377 46.6666 85.8712 46.7528 86.2756 46.9204C86.68 47.0879 87.0475 47.3334 87.357 47.6429C87.6665 47.9524 87.9121 48.3199 88.0796 48.7243C88.2471 49.1287 88.3333 49.5621 88.3333 49.9999V51.6665H46.6667V49.9999C46.6667 49.1158 47.0179 48.268 47.643 47.6429C48.2681 47.0178 49.1159 46.6666 50 46.6666ZM50 88.3322C49.5623 88.3322 49.1288 88.246 48.7244 88.0785C48.32 87.911 47.9525 87.6654 47.643 87.3559C47.3335 87.0464 47.0879 86.6789 46.9204 86.2745C46.7529 85.8701 46.6667 85.4367 46.6667 84.999V53.3331H88.3333V57.32C87.5738 56.8819 86.7124 56.6513 85.8356 56.6511C84.9588 56.6509 84.0974 56.8812 83.3377 57.319C82.5779 57.7567 81.9467 58.3865 81.5071 59.1452C81.0676 59.9038 80.8352 60.7647 80.8333 61.6415L81.0677 67.8288L75.5117 63.5086C75.337 63.3775 75.1177 63.3202 74.9012 63.3492C74.6846 63.3781 74.4881 63.4909 74.3539 63.6634C74.2197 63.8358 74.1586 64.054 74.1837 64.271C74.2089 64.488 74.3182 64.6865 74.4883 64.8237L81.1458 69.9993L74.4896 75.1737C74.3522 75.2801 74.2515 75.4268 74.2016 75.5933C74.1517 75.7598 74.1551 75.9378 74.2114 76.1022C74.2676 76.2667 74.3739 76.4094 74.5153 76.5105C74.6567 76.6116 74.8262 76.6659 75 76.6658C75.185 76.6661 75.3648 76.6042 75.5104 76.4901L81.2279 72.0449L81.4674 78.3325H79.1667C78.5036 78.3325 77.8677 78.5958 77.3989 79.0647C76.9301 79.5335 76.6667 80.1694 76.6667 80.8324V84.1656C76.6753 85.5604 76.5734 86.9536 76.362 88.3322H50ZM92.0169 93.2904C92.0092 93.3035 91.9982 93.3143 91.9849 93.3216C91.9716 93.3289 91.9566 93.3325 91.9414 93.3321L90.4414 93.3256L89.4167 91.7852C89.3101 91.6246 89.1654 91.4929 88.9954 91.402C88.8254 91.3111 88.6355 91.2638 88.4427 91.2644C88.3887 91.2644 88.3347 91.2683 88.2812 91.2761C88.0632 91.305 87.8577 91.3947 87.6882 91.535C87.5187 91.6752 87.3921 91.8603 87.3229 92.0691L86.8893 93.3347H85.5742L84.4258 90.4871C84.3403 90.2669 84.1902 90.0776 83.9953 89.9442C83.8003 89.8107 83.5696 89.7393 83.3333 89.7393C83.0971 89.7393 82.8663 89.8107 82.6714 89.9442C82.4764 90.0776 82.3264 90.2669 82.2409 90.4871L81.0924 93.3347L76.6081 93.2995C76.5998 93.2863 76.5953 93.2709 76.5953 93.2553C76.5953 93.2396 76.5998 93.2243 76.6081 93.211C77.7778 90.6367 78.3634 87.8354 78.3229 85.0081H93.3229C93.2396 89.9559 92.3919 92.4389 92.0208 93.2995L92.0169 93.2904Z" fill="#448E08"/>
</g>
<path d="M50 49.9999H50.8334C51.0544 49.9999 51.2663 49.9121 51.4226 49.7558C51.5789 49.5995 51.6667 49.3876 51.6667 49.1666C51.6667 48.9456 51.5789 48.7336 51.4226 48.5773C51.2663 48.421 51.0544 48.3333 50.8334 48.3333H50C49.779 48.3333 49.567 48.421 49.4108 48.5773C49.2545 48.7336 49.1667 48.9456 49.1667 49.1666C49.1667 49.3876 49.2545 49.5995 49.4108 49.7558C49.567 49.9121 49.779 49.9999 50 49.9999Z" fill="#448E08"/>
<path d="M54.1666 49.9999H55C55.221 49.9999 55.433 49.9121 55.5892 49.7558C55.7455 49.5995 55.8333 49.3876 55.8333 49.1666C55.8333 48.9456 55.7455 48.7336 55.5892 48.5773C55.433 48.421 55.221 48.3333 55 48.3333H54.1666C53.9456 48.3333 53.7337 48.421 53.5774 48.5773C53.4211 48.7336 53.3333 48.9456 53.3333 49.1666C53.3333 49.3876 53.4211 49.5995 53.5774 49.7558C53.7337 49.9121 53.9456 49.9999 54.1666 49.9999Z" fill="#448E08"/>
<path d="M58.3333 49.9999H59.1667C59.3877 49.9999 59.5996 49.9121 59.7559 49.7558C59.9122 49.5995 60 49.3876 60 49.1666C60 48.9456 59.9122 48.7336 59.7559 48.5773C59.5996 48.421 59.3877 48.3333 59.1667 48.3333H58.3333C58.1123 48.3333 57.9004 48.421 57.7441 48.5773C57.5878 48.7336 57.5 48.9456 57.5 49.1666C57.5 49.3876 57.5878 49.5995 57.7441 49.7558C57.9004 49.9121 58.1123 49.9999 58.3333 49.9999Z" fill="#448E08"/>
<path d="M67.5 49.9999H80.8333C81.0544 49.9999 81.2663 49.9121 81.4226 49.7558C81.5789 49.5995 81.6667 49.3876 81.6667 49.1666C81.6667 48.9456 81.5789 48.7336 81.4226 48.5773C81.2663 48.421 81.0544 48.3333 80.8333 48.3333H67.5C67.279 48.3333 67.067 48.421 66.9108 48.5773C66.7545 48.7336 66.6667 48.9456 66.6667 49.1666C66.6667 49.3876 66.7545 49.5995 66.9108 49.7558C67.067 49.9121 67.279 49.9999 67.5 49.9999Z" fill="#448E08"/>
<path d="M60.6576 63.6545C60.5903 63.5678 60.5066 63.4952 60.4113 63.4409C60.3159 63.3866 60.2108 63.3517 60.1019 63.3382C59.993 63.3246 59.8825 63.3327 59.7768 63.362C59.6711 63.3912 59.5721 63.4411 59.4857 63.5086L51.9909 69.3483C51.8908 69.4263 51.8098 69.526 51.7541 69.6399C51.6984 69.7539 51.6695 69.879 51.6695 70.0059C51.6695 70.1327 51.6984 70.2579 51.7541 70.3718C51.8098 70.4858 51.8908 70.5855 51.9909 70.6634L59.4909 76.4966C59.636 76.6107 59.8154 76.6726 60 76.6724C60.1737 76.6726 60.3432 76.6185 60.4846 76.5177C60.6261 76.4169 60.7326 76.2745 60.7891 76.1102C60.8456 75.9459 60.8494 75.7681 60.7999 75.6016C60.7504 75.4351 60.6501 75.2882 60.513 75.1815L53.8542 69.9994L60.5078 64.8237C60.5945 64.7565 60.6671 64.6728 60.7214 64.5774C60.7757 64.4821 60.8106 64.377 60.8241 64.2681C60.8377 64.1592 60.8296 64.0487 60.8004 63.943C60.7711 63.8372 60.7212 63.7383 60.6537 63.6519L60.6576 63.6545Z" fill="#448E08"/>
<path d="M70.2396 60.8681C70.1345 60.836 70.0241 60.825 69.9148 60.8358C69.8055 60.8465 69.6994 60.8788 69.6026 60.9307C69.5058 60.9826 69.4202 61.0532 69.3507 61.1383C69.2813 61.2234 69.2293 61.3214 69.1979 61.4266L64.1979 78.0929C64.1344 78.3046 64.1575 78.5328 64.2623 78.7274C64.367 78.922 64.5448 79.0671 64.7565 79.1306C64.9682 79.1941 65.1964 79.171 65.3911 79.0662C65.5857 78.9615 65.7307 78.7837 65.7943 78.572L70.7943 61.9058C70.8263 61.8007 70.8373 61.6904 70.8265 61.581C70.8158 61.4717 70.7835 61.3656 70.7316 61.2688C70.6797 61.172 70.6091 61.0864 70.524 61.017C70.4389 60.9475 70.3409 60.8956 70.2357 60.8642L70.2396 60.8681Z" fill="#448E08"/>
</g>
<defs>
<clipPath id="clip0_147_531">
<rect width="50" height="50" fill="white" transform="translate(45 45)"/>
</clipPath>
</defs>
</svg>
