<svg width="140" height="140" viewBox="0 0 140 140" fill="none" xmlns="http://www.w3.org/2000/svg">
<path d="M138 70C138 73.5233 135.635 76.79 132.272 80.4859C131.716 81.0972 131.125 81.7288 130.524 82.3707C129.417 83.554 128.278 84.7721 127.264 85.9614C125.673 87.8263 124.188 89.845 123.274 92.0396C122.361 94.2309 121.965 96.7213 121.749 99.1836C121.608 100.801 121.538 102.525 121.471 104.198C121.437 105.042 121.403 105.872 121.361 106.67C121.095 111.734 120.458 115.712 118.085 118.085C115.715 120.456 111.82 121.061 106.803 121.307C106.053 121.343 105.274 121.373 104.481 121.403C102.775 121.467 101.006 121.533 99.3313 121.681C96.8492 121.899 94.3293 122.309 92.0699 123.245C89.8049 124.184 87.7506 125.681 85.8644 127.285C84.6219 128.341 83.3663 129.521 82.154 130.661C81.5539 131.226 80.9644 131.78 80.3923 132.304C76.7316 135.659 73.5331 138 70 138C66.4643 138 63.1975 135.629 59.5061 132.261C58.8951 131.703 58.2637 131.11 57.6221 130.508C56.4406 129.399 55.2243 128.258 54.0369 127.242C52.174 125.65 50.1563 124.161 47.9604 123.247C45.7682 122.334 43.277 121.939 40.8143 121.726C39.1943 121.586 37.4676 121.519 35.7914 121.454C34.9507 121.421 34.1226 121.388 33.3271 121.348C28.263 121.088 24.2862 120.457 21.9146 118.085C19.5444 115.715 18.9386 111.814 18.6932 106.79C18.6565 106.039 18.6272 105.258 18.5974 104.465C18.5332 102.756 18.4666 100.985 18.3192 99.3085C18.1007 96.8241 17.6908 94.3023 16.7545 92.0427C15.8159 89.7777 14.3188 87.7234 12.7153 85.8375C11.656 84.5917 10.4723 83.3336 9.32973 82.1193C8.76841 81.5227 8.21702 80.9367 7.69517 80.3678C4.3386 76.7089 2 73.5181 2 70C2 66.4781 4.36988 63.2122 7.74069 59.5115C8.29329 58.9048 8.87978 58.2784 9.47576 57.6419C10.5903 56.4514 11.738 55.2255 12.7596 54.0268C14.3527 52.1575 15.8405 50.1331 16.7542 47.9309C17.6656 45.7343 18.0625 43.2436 18.2773 40.7818C18.4189 39.159 18.488 37.4311 18.5549 35.7547C18.5883 34.9189 18.6212 34.0958 18.6623 33.305C18.925 28.2516 19.5556 24.2844 21.9178 21.9114C24.2746 19.5438 28.1731 18.9319 33.2029 18.6795C33.9571 18.6417 34.7407 18.6112 35.5377 18.5802C37.2455 18.5138 39.0151 18.445 40.6896 18.2961C43.1755 18.0751 45.6984 17.6634 47.9573 16.7274C50.2215 15.7891 52.2754 14.2943 54.1613 12.6934C55.4056 11.6372 56.6623 10.4571 57.8754 9.31787C58.4733 8.75637 59.0607 8.20483 59.6307 7.68298C63.2888 4.33401 66.4802 2 70 2C73.5222 2 76.788 4.37009 80.4892 7.73799C81.0915 8.286 81.7129 8.86703 82.3444 9.45741C83.5395 10.5748 84.7705 11.7257 85.9751 12.7498C87.8449 14.3394 89.8705 15.8227 92.0747 16.7294C94.2697 17.6323 96.7586 18.0254 99.2189 18.2392C100.821 18.3785 102.529 18.4482 104.188 18.5159C105.043 18.5508 105.885 18.5852 106.692 18.6283C111.742 18.8977 115.711 19.54 118.085 21.9146C120.457 24.2865 121.068 28.1834 121.321 33.1997C121.358 33.9521 121.389 34.7339 121.42 35.5291C121.486 37.2333 121.555 38.9993 121.704 40.6708C121.925 43.1525 122.337 45.6717 123.273 47.9301C124.211 50.1958 125.707 52.2453 127.309 54.1256C128.357 55.3562 129.529 56.6008 130.661 57.8027C131.23 58.4076 131.79 59.0017 132.318 59.5777C135.661 63.222 138 66.4231 138 70Z" stroke="#448E08" stroke-width="4"/>
</svg>
