<svg width="50" height="50" viewBox="0 0 50 50" fill="none" xmlns="http://www.w3.org/2000/svg">
<g clip-path="url(#clip0_147_534)">
<mask id="mask0_147_534" style="mask-type:luminance" maskUnits="userSpaceOnUse" x="0" y="0" width="50" height="50">
<path d="M50 0H0V49.9987H50V0Z" fill="white"/>
</mask>
<g mask="url(#mask0_147_534)">
<path d="M47.5 33.3325H45.1992L45.8333 16.8407C45.8764 15.7924 45.5845 14.7576 45 13.8864V4.99987C44.9986 3.67424 44.4714 2.40331 43.534 1.46595C42.5966 0.528591 41.3257 0.00137871 40 0H5C3.67434 0.00137871 2.40337 0.528591 1.46599 1.46595C0.528605 2.40331 0.00137874 3.67424 0 4.99987V39.999C0.00137874 41.3246 0.528605 42.5955 1.46599 43.5329C2.40337 44.4702 3.67434 44.9974 5 44.9988H31.0104C30.8009 45.8465 30.5024 46.6696 30.1198 47.4545C29.984 47.721 29.9188 48.0179 29.9305 48.3168C29.9421 48.6157 30.0302 48.9066 30.1862 49.1618C30.3423 49.4169 30.5611 49.6278 30.8219 49.7744C31.0827 49.9209 31.3767 49.9981 31.6758 49.9987H36.0912C36.4276 49.9997 36.7566 49.8994 37.0353 49.7108C37.314 49.5223 37.5295 49.2542 37.6537 48.9414L38.3333 47.2488L39.013 48.9414C39.1368 49.2545 39.3521 49.5229 39.6309 49.7115C39.9097 49.9001 40.2389 50.0002 40.5755 49.9987H41.8906C42.2436 49.9991 42.5878 49.8883 42.8741 49.6819C43.1605 49.4755 43.3745 49.184 43.4857 48.849L43.5872 48.5456L44.056 49.25C44.2093 49.4808 44.4174 49.67 44.6616 49.8009C44.9059 49.9317 45.1786 50.0001 45.4557 50H46.9427C47.2821 50.0003 47.6142 49.9021 47.8988 49.7172C48.1834 49.5322 48.4081 49.2686 48.5456 48.9584C49.0885 47.711 50.0013 44.7814 50.0013 39.1656V35.8324C50.0013 35.1694 49.7379 34.5335 49.2691 34.0647C48.8002 33.5958 48.1643 33.3325 47.5013 33.3325H47.5ZM48.3333 35.8324V38.3323H33.3333V35.8324C33.3333 35.6114 33.4211 35.3994 33.5774 35.2432C33.7337 35.0869 33.9457 34.9991 34.1667 34.9991H47.5C47.6095 34.9989 47.7179 35.0204 47.8191 35.0622C47.9203 35.104 48.0122 35.1654 48.0896 35.2428C48.167 35.3202 48.2284 35.4121 48.2702 35.5133C48.3121 35.6145 48.3335 35.7229 48.3333 35.8324ZM38.1354 33.3325L37.5 16.8082V16.6415C37.4998 16.198 37.5881 15.7589 37.7597 15.3499C37.9312 14.9409 38.1827 14.5703 38.4993 14.2597C38.8159 13.9491 39.1912 13.7048 39.6034 13.541C40.0156 13.3773 40.4563 13.2974 40.8998 13.306C41.3432 13.3147 41.7804 13.4117 42.1859 13.5914C42.5914 13.7712 42.9569 14.03 43.2612 14.3527C43.5654 14.6754 43.8022 15.0556 43.9576 15.471C44.1131 15.8863 44.1842 16.3285 44.1667 16.7717L43.5312 33.3325H38.1354ZM5 1.66662H40C40.4377 1.66662 40.8712 1.75284 41.2756 1.92035C41.68 2.08786 42.0475 2.33339 42.357 2.64291C42.6665 2.95243 42.9121 3.31988 43.0796 3.72429C43.2471 4.1287 43.3333 4.56214 43.3333 4.99987V6.66649H1.66666V4.99987C1.66666 4.11584 2.01786 3.26801 2.64298 2.64291C3.2681 2.0178 4.11595 1.66662 5 1.66662ZM5 43.3322C4.56226 43.3322 4.12881 43.246 3.72439 43.0785C3.31997 42.911 2.95251 42.6654 2.64298 42.3559C2.33345 42.0464 2.08791 41.6789 1.9204 41.2745C1.75288 40.8701 1.66666 40.4367 1.66666 39.999V8.33312H43.3333V12.32C42.5738 11.8819 41.7124 11.6513 40.8356 11.6511C39.9588 11.6509 39.0974 11.8812 38.3377 12.319C37.5779 12.7567 36.9467 13.3865 36.5071 14.1452C36.0676 14.9038 35.8352 15.7647 35.8333 16.6415L36.0677 22.8288L30.5117 18.5086C30.337 18.3775 30.1177 18.3202 29.9012 18.3492C29.6846 18.3781 29.4881 18.4909 29.3539 18.6634C29.2197 18.8358 29.1586 19.054 29.1837 19.271C29.2089 19.488 29.3182 19.6865 29.4883 19.8237L36.1458 24.9993L29.4896 30.1737C29.3522 30.2801 29.2515 30.4268 29.2016 30.5933C29.1517 30.7598 29.1551 30.9378 29.2114 31.1022C29.2676 31.2667 29.3739 31.4094 29.5153 31.5105C29.6567 31.6116 29.8262 31.6659 30 31.6658C30.185 31.6661 30.3648 31.6042 30.5104 31.4901L36.2279 27.0449L36.4674 33.3325H34.1667C33.5036 33.3325 32.8677 33.5958 32.3989 34.0647C31.9301 34.5335 31.6667 35.1694 31.6667 35.8324V39.1656C31.6753 40.5604 31.5734 41.9536 31.362 43.3322H5ZM47.0169 48.2904C47.0092 48.3035 46.9982 48.3143 46.9849 48.3216C46.9716 48.3289 46.9566 48.3325 46.9414 48.3321L45.4414 48.3256L44.4167 46.7852C44.3101 46.6246 44.1654 46.4929 43.9954 46.402C43.8254 46.3111 43.6355 46.2638 43.4427 46.2644C43.3887 46.2644 43.3347 46.2683 43.2812 46.2761C43.0632 46.305 42.8577 46.3947 42.6882 46.535C42.5187 46.6752 42.3921 46.8603 42.3229 47.0691L41.8893 48.3347H40.5742L39.4258 45.4871C39.3403 45.2669 39.1902 45.0776 38.9953 44.9442C38.8003 44.8107 38.5696 44.7393 38.3333 44.7393C38.0971 44.7393 37.8663 44.8107 37.6714 44.9442C37.4764 45.0776 37.3264 45.2669 37.2409 45.4871L36.0924 48.3347L31.6081 48.2995C31.5998 48.2863 31.5953 48.2709 31.5953 48.2553C31.5953 48.2396 31.5998 48.2243 31.6081 48.211C32.7778 45.6367 33.3634 42.8354 33.3229 40.0081H48.3229C48.2396 44.9559 47.3919 47.4389 47.0208 48.2995L47.0169 48.2904Z" fill="#448E08"/>
</g>
<path d="M5.00002 4.99987H5.83335C6.05437 4.99987 6.26633 4.91208 6.42261 4.7558C6.57889 4.59953 6.66669 4.38757 6.66669 4.16656C6.66669 3.94555 6.57889 3.7336 6.42261 3.57732C6.26633 3.42105 6.05437 3.33325 5.83335 3.33325H5.00002C4.77901 3.33325 4.56704 3.42105 4.41076 3.57732C4.25448 3.7336 4.16669 3.94555 4.16669 4.16656C4.16669 4.38757 4.25448 4.59953 4.41076 4.7558C4.56704 4.91208 4.77901 4.99987 5.00002 4.99987Z" fill="#448E08"/>
<path d="M9.16665 4.99987H9.99998C10.221 4.99987 10.433 4.91208 10.5892 4.7558C10.7455 4.59953 10.8333 4.38757 10.8333 4.16656C10.8333 3.94555 10.7455 3.7336 10.5892 3.57732C10.433 3.42105 10.221 3.33325 9.99998 3.33325H9.16665C8.94564 3.33325 8.73367 3.42105 8.57739 3.57732C8.42111 3.7336 8.33331 3.94555 8.33331 4.16656C8.33331 4.38757 8.42111 4.59953 8.57739 4.7558C8.73367 4.91208 8.94564 4.99987 9.16665 4.99987Z" fill="#448E08"/>
<path d="M13.3333 4.99987H14.1667C14.3877 4.99987 14.5996 4.91208 14.7559 4.7558C14.9122 4.59953 15 4.38757 15 4.16656C15 3.94555 14.9122 3.7336 14.7559 3.57732C14.5996 3.42105 14.3877 3.33325 14.1667 3.33325H13.3333C13.1123 3.33325 12.9004 3.42105 12.7441 3.57732C12.5878 3.7336 12.5 3.94555 12.5 4.16656C12.5 4.38757 12.5878 4.59953 12.7441 4.7558C12.9004 4.91208 13.1123 4.99987 13.3333 4.99987Z" fill="#448E08"/>
<path d="M22.5 4.99987H35.8333C36.0544 4.99987 36.2663 4.91208 36.4226 4.7558C36.5789 4.59953 36.6667 4.38757 36.6667 4.16656C36.6667 3.94555 36.5789 3.7336 36.4226 3.57732C36.2663 3.42105 36.0544 3.33325 35.8333 3.33325H22.5C22.279 3.33325 22.067 3.42105 21.9108 3.57732C21.7545 3.7336 21.6667 3.94555 21.6667 4.16656C21.6667 4.38757 21.7545 4.59953 21.9108 4.7558C22.067 4.91208 22.279 4.99987 22.5 4.99987Z" fill="#448E08"/>
<path d="M15.6576 18.6545C15.5903 18.5678 15.5066 18.4952 15.4113 18.4409C15.3159 18.3866 15.2108 18.3517 15.1019 18.3382C14.993 18.3246 14.8825 18.3327 14.7768 18.362C14.6711 18.3912 14.5721 18.4411 14.4857 18.5086L6.9909 24.3483C6.89082 24.4263 6.80984 24.526 6.75414 24.6399C6.69844 24.7539 6.66949 24.879 6.66949 25.0059C6.66949 25.1327 6.69844 25.2579 6.75414 25.3718C6.80984 25.4858 6.89082 25.5855 6.9909 25.6634L14.4909 31.4966C14.636 31.6107 14.8154 31.6726 15 31.6724C15.1737 31.6726 15.3432 31.6185 15.4846 31.5177C15.6261 31.4169 15.7326 31.2745 15.7891 31.1102C15.8456 30.9459 15.8494 30.7681 15.7999 30.6016C15.7504 30.4351 15.6501 30.2882 15.513 30.1815L8.85418 24.9994L15.5078 19.8237C15.5945 19.7565 15.6671 19.6728 15.7214 19.5774C15.7757 19.4821 15.8106 19.377 15.8241 19.2681C15.8377 19.1592 15.8296 19.0487 15.8004 18.943C15.7711 18.8372 15.7212 18.7383 15.6537 18.6519L15.6576 18.6545Z" fill="#448E08"/>
<path d="M25.2396 15.8681C25.1345 15.836 25.0241 15.825 24.9148 15.8358C24.8055 15.8465 24.6994 15.8788 24.6026 15.9307C24.5058 15.9826 24.4202 16.0532 24.3507 16.1383C24.2813 16.2234 24.2293 16.3214 24.1979 16.4266L19.1979 33.0929C19.1344 33.3046 19.1575 33.5328 19.2623 33.7274C19.367 33.922 19.5448 34.0671 19.7565 34.1306C19.9682 34.1941 20.1964 34.171 20.3911 34.0662C20.5857 33.9615 20.7307 33.7837 20.7943 33.572L25.7943 16.9058C25.8263 16.8007 25.8373 16.6904 25.8265 16.581C25.8158 16.4717 25.7835 16.3656 25.7316 16.2688C25.6797 16.172 25.6091 16.0864 25.524 16.017C25.4389 15.9475 25.3409 15.8956 25.2357 15.8642L25.2396 15.8681Z" fill="#448E08"/>
</g>
<defs>
<clipPath id="clip0_147_534">
<rect width="50" height="50" fill="white"/>
</clipPath>
</defs>
</svg>
