<?xml version="1.0" encoding="utf-8"?>
<!-- Generator: Adobe Illustrator 26.0.3, SVG Export Plug-In . SVG Version: 6.00 Build 0)  -->
<svg version="1.1" id="Layer_1" xmlns="http://www.w3.org/2000/svg" xmlns:xlink="http://www.w3.org/1999/xlink" x="0px" y="0px"
	 viewBox="0 0 500 500" style="enable-background:new 0 0 500 500;" xml:space="preserve">
<style type="text/css">
	.st0{fill:url(#SVGID_1_);}
	.st1{fill:url(#SVGID_00000089562460601339010010000017693403736624951169_);}
	.st2{fill:#FFFFFF;}
</style>
<linearGradient id="SVGID_1_" gradientUnits="userSpaceOnUse" x1="27.5" y1="250.5" x2="473.5" y2="250.5">
	<stop  offset="0" style="stop-color:#0049E7"/>
	<stop  offset="0.1105" style="stop-color:#0648E7"/>
	<stop  offset="0.2552" style="stop-color:#1647E9"/>
	<stop  offset="0.419" style="stop-color:#3144EB"/>
	<stop  offset="0.5967" style="stop-color:#5740EE"/>
	<stop  offset="0.7857" style="stop-color:#883BF3"/>
	<stop  offset="0.9815" style="stop-color:#C236F7"/>
	<stop  offset="1" style="stop-color:#C835F8"/>
</linearGradient>
<path class="st0" d="M473.5,250.5c0,39.8-10.6,78.1-29.9,111.5c-19.2,33.4-47.1,61.7-81.6,81.6c-34.5,19.9-73,29.9-111.5,29.9
	c-38.5,0-77-10-111.5-29.9c-34.5-19.9-62.4-48.3-81.6-81.6c-19.2-33.4-29.9-71.7-29.9-111.5c0-24.5,4-48.5,11.6-71.1
	c0.1-0.2,0.1-0.3,0.2-0.5c0.5-1.3,0.9-2.7,1.4-4c4.5-12.5,10.1-24.5,16.7-35.9c0.8-1.5,1.7-2.9,2.6-4.3c1.1-1.9,2.3-3.7,3.5-5.5
	c1.7-2.6,3.5-5.2,5.3-7.8c18.3-25.8,42.1-47.7,70.3-64.1c34.5-19.9,73-29.9,111.5-29.9c38.5,0,77,10,111.5,29.9
	C431,97.2,473.5,170.8,473.5,250.5z"/>
<g>
	
		<linearGradient id="SVGID_00000101099698756387175010000017753176571211877264_" gradientUnits="userSpaceOnUse" x1="13.5652" y1="250" x2="486.4348" y2="250">
		<stop  offset="0" style="stop-color:#0049E7"/>
		<stop  offset="0.1105" style="stop-color:#0648E7"/>
		<stop  offset="0.2552" style="stop-color:#1647E9"/>
		<stop  offset="0.419" style="stop-color:#3144EB"/>
		<stop  offset="0.5967" style="stop-color:#5740EE"/>
		<stop  offset="0.7857" style="stop-color:#883BF3"/>
		<stop  offset="0.9815" style="stop-color:#C236F7"/>
		<stop  offset="1" style="stop-color:#C835F8"/>
	</linearGradient>
	<path style="fill:url(#SVGID_00000101099698756387175010000017753176571211877264_);" d="M250,18.6c40,0,79.9,10.3,115.7,31
		C437.3,90.9,481.4,167.3,481.4,250c0,41.3-11,81.1-31,115.7c-20,34.6-48.9,64-84.7,84.7c-35.8,20.7-75.8,31-115.7,31
		s-79.9-10.3-115.7-31c-35.8-20.7-64.7-50.1-84.7-84.7c-20-34.6-31-74.4-31-115.7c0-27.2,4.8-53.6,13.7-78.4
		c4.7-12.9,10.5-25.4,17.3-37.3c3.6-6.3,7.5-12.3,11.7-18.2c19-26.7,43.7-49.6,73-66.5C170.1,28.9,210,18.6,250,18.6 M250,13.6
		c-41.4,0-82.3,11-118.2,31.7c-29.7,17.1-54.8,40-74.6,67.9c-4.3,6-8.3,12.3-12,18.6c-7,12.1-12.9,25-17.7,38.1
		c-9.3,25.8-14,52.7-14,80.1c0,41.4,11,82.3,31.7,118.2c20.7,35.9,50.7,65.8,86.6,86.5c35.9,20.7,76.8,31.7,118.2,31.7
		c41.4,0,82.3-11,118.2-31.7c35.9-20.7,65.8-50.7,86.5-86.5c20.7-35.9,31.7-76.8,31.7-118.2c0-41.4-11-82.3-31.7-118.2
		C434,95.9,404.1,66,368.2,45.2C332.3,24.5,291.4,13.6,250,13.6L250,13.6z"/>
</g>
<g>
	<path class="st2" d="M157.4,174h-13.6l12.7-0.1C156.8,174,157.1,174,157.4,174z"/>
</g>
<path class="st2" d="M300,134.7l-240.1,0c-0.9,1.4-1.7,2.9-2.6,4.3c-6.6,11.4-12.2,23.4-16.7,35.9c-0.5,1.3-0.9,2.7-1.4,4h11.9
	c0,0,0,0,0,0l97.4-0.4l11.9,0h1.7c-0.3,0-0.6,0-0.9,0h140.3c30.1,2,35.2,21.5,35.9,25c0.1,0.5,0.2,1,0.3,1.5
	c3.8,17.6-9.2,17.5-9.2,17.5H178.2c-40,0-72.4,32.4-72.4,72.4v5.3c0,39.3,31.8,71.1,71.1,71.1l156.2,0c27.1,0,49.1-22,49.1-49.1V217
	C382.3,171.6,345.4,134.7,300,134.7z M338.4,309.8c0,0.4,0,0.8-0.1,1.2c-0.7,9.2-7.2,16.5-15.1,16.5H174
	c-14.1,0-25.6-13.8-25.6-30.6c0-8.4,2.9-16,7.5-21.6s11-9,18.1-9h155.9c4.7,0,8.5,4.6,8.5,10.1V309.8z"/>
</svg>
