<svg xmlns="http://www.w3.org/2000/svg" xmlns:xlink="http://www.w3.org/1999/xlink" id="Layer_1" x="0px" y="0px" viewBox="0 0 484.8 125.4" style="enable-background:new 0 0 484.8 125.4;" xml:space="preserve"><style type="text/css">	.st0{fill:url(#SVGID_1_);}	.st1{fill:#0049E7;}	.st2{fill:#C835F8;}	.st3{fill:#FFFFFF;}</style><g>			<linearGradient id="SVGID_1_" gradientUnits="userSpaceOnUse" x1="3.0202" y1="157.834" x2="81.6067" y2="10.6626" gradientTransform="matrix(1 0 0 -1 0 128)">		<stop offset="0" style="stop-color:#0049E7"></stop>		<stop offset="0.1105" style="stop-color:#0648E7"></stop>		<stop offset="0.2552" style="stop-color:#1647E9"></stop>		<stop offset="0.419" style="stop-color:#3144EB"></stop>		<stop offset="0.5967" style="stop-color:#5740EE"></stop>		<stop offset="0.7857" style="stop-color:#883BF3"></stop>		<stop offset="0.9815" style="stop-color:#C236F7"></stop>		<stop offset="1" style="stop-color:#C835F8"></stop>	</linearGradient>	<path class="st0" d="M2,124.9l46.5-103h20.8l10,21.9c2.1,4.5-1.2,9.6-6.1,9.6l0,0c-2.4,0-4.6-1.3-5.8-3.3l-8.8-14.9L45.4,63.3  l13.2,27l8.8-14.8c1.2-2.1,3.5-3.4,5.9-3.4l0,0c4.9,0,8.3,5.1,6.3,9.6l-10.2,23.7H48.5L36.5,79.7l-13.8,32.7h53.8  c0,0,23.6,1.5,26.1-22.5c0.5-4.8-0.7-9.6-2.4-14c-1.3-3.5-3.5-7.9-6.6-12.4c0,0,12-18.8,8.5-30.9c0,0-1.1-7.4-8.4-13.5  c-5-4.3-11.6-6.4-18.2-6.4H52.6l5.5-12h21.1c4.6,0.2,8.8,0.9,12.5,2.1c25.3,7.9,28.8,31.8,22.5,47.3l-5.4,13.5l5,11.4  c10.7,23.3-7.9,48.4-32,50.1c-0.8,0.1-1.7,0.1-2.6,0.1L2,124.9L2,124.9z"></path>	<path class="st1" d="M133.8,57.2h10.4V110h-10.4V57.2z"></path>	<path class="st1" d="M155.3,106.7l29.8-39.9h-27.9v-9.5h43.1v5.7l-29.9,39.9h308.8c2,0,3.6,1.6,3.6,3.6v0c0,2-1.6,3.6-3.6,3.6  H155.3V106.7z"></path>	<path class="st1" d="M225.7,39h5.7l23.5,57.7h-8.5l-5.2-13.1h-25.6l-5.2,13.1h-8.3L225.7,39z M238.5,76.9l-10.1-25.3l-10.2,25.3  H238.5z"></path>	<path class="st1" d="M257.9,77.1c0-11.6,8.4-20.6,19.3-20.6c5.6,0,10.3,2.3,13.1,6.2V37.4h7.5v59.4h-7.5v-5.3  c-2.8,3.8-7.5,6.2-13.1,6.2C266.3,97.6,257.9,88.6,257.9,77.1z M290.9,77.1c0-8.1-5-13.6-12.5-13.6c-7.5,0-12.7,5.6-12.7,13.5  s5.3,13.6,12.8,13.6C285.9,90.5,290.9,85,290.9,77.1z"></path>	<path class="st1" d="M306.3,77.1c0-11.6,8.4-20.6,19.3-20.6c5.6,0,10.3,2.3,13.1,6.2V37.4h7.5v59.4h-7.5v-5.3  c-2.8,3.8-7.5,6.2-13.1,6.2C314.7,97.6,306.3,88.6,306.3,77.1z M339.3,77.1c0-8.1-5-13.6-12.5-13.6c-7.5,0-12.7,5.6-12.7,13.5  s5.3,13.6,12.8,13.6C334.3,90.5,339.3,85,339.3,77.1z"></path>	<path class="st1" d="M404.4,57.3h7.5v5.2c2.8-3.7,7.2-6,12.5-6c9.1,0,15.5,7.6,15.5,15.8v24.5h-7.5V73.7c0-6.1-4.2-10.3-10.2-10.3  c-6,0-10.3,4.3-10.3,10.3v23.1h-7.5V57.3z"></path>	<path class="st1" d="M446.5,90.4l4.8-4.8c2.8,3.6,6.7,5.2,11.3,5.2s7.3-1.7,7.3-4.6c0-8.7-21.2-3.7-21.2-18.1  c0-7.2,5.4-11.6,14.1-11.6c6.2,0,11.1,2.2,14.2,6.5l-4.8,4.8c-2.2-2.9-5.5-4.5-9.7-4.5c-4.3,0-6.7,1.7-6.7,4.2  c0,7.8,21.1,3.3,21.1,18.1c0,7.4-5.7,12.1-14.6,12.1C455.9,97.6,450.1,94.9,446.5,90.4z"></path>	<path class="st2" d="M132.8,48.2l5.5-13.8c0.3-0.7,1.2-0.7,1.5,0l5.5,13.8c0.2,0.5-0.2,1.1-0.7,1.1h-11  C133,49.3,132.6,48.7,132.8,48.2z"></path>	<g>		<circle class="st2" cx="375.3" cy="77" r="20.6"></circle>		<g>			<rect x="361.2" y="74.9" class="st3" width="28.2" height="4.3"></rect>							<rect x="361.2" y="74.9" transform="matrix(-1.836970e-16 1 -1 -1.836970e-16 452.3403 -298.3066)" class="st3" width="28.2" height="4.3"></rect>		</g>	</g></g></svg>