<?xml version="1.0" encoding="utf-8"?>
<!-- Generator: Adobe Illustrator 26.0.3, SVG Export Plug-In . SVG Version: 6.00 Build 0)  -->
<svg version="1.1" id="Layer_1" xmlns="http://www.w3.org/2000/svg" xmlns:xlink="http://www.w3.org/1999/xlink" x="0px" y="0px"
	 viewBox="0 0 563.7 563.4" style="enable-background:new 0 0 563.7 563.4;" xml:space="preserve">
<style type="text/css">
	.st0{fill:url(#SVGID_1_);}
	.st1{fill:#CAD7DE;}
	.st2{fill:#F9FBFC;}
	.st3{fill:#ED1C24;}
</style>
<g>
	<linearGradient id="SVGID_1_" gradientUnits="userSpaceOnUse" x1="74.4561" y1="86.059" x2="461.524" y2="451.239">
		<stop  offset="0" style="stop-color:#1647E9"/>
		<stop  offset="0.1135" style="stop-color:#2246EA"/>
		<stop  offset="0.3204" style="stop-color:#4343ED"/>
		<stop  offset="0.5972" style="stop-color:#783DF1"/>
		<stop  offset="0.8994" style="stop-color:#B937F6"/>
	</linearGradient>
	<path class="st0" d="M285.3,3.3h-6.9C124.6,3.3,0,128,0,281.7v0c0,153.8,124.6,278.4,278.4,278.4h6.9
		c153.8,0,278.4-124.6,278.4-278.4v0C563.7,128,439,3.3,285.3,3.3z"/>
	<g>
		<g>
			<polygon class="st1" points="226.5,271.4 256.3,224.7 271.3,224.7 243.4,271.4 			"/>
		</g>
		<g>
			<polygon class="st1" points="167.3,365.1 197,318.4 212,318.4 184.1,365.1 			"/>
		</g>
		<g>
			<path class="st1" d="M115.8,271.4c0,0,0.9-28.3,9.8-46.7h58.6l-24.5,46.7H115.8z"/>
		</g>
		<g>
			<path class="st2" d="M79.4,387.6c36.1,66.5,105.5,109.8,179.4,117c73.9,7.2,150.4-22,198.6-78.5c-11.2-10.2-22.5-22.1-33.7-32.4
				c-35.8,42-90.8,66.9-146,66.1c-55.2-0.8-109.5-27.3-144-70.3c59.9-95.5,119.8-191,179.7-286.5c-0.9,1.3-12.8,0.6-14.7,0.7
				c-5.1,0.2-10.2,0.5-15.3,0.7s-10.2,0.5-15.3,0.7c-4.3,0.2-10.4-1-13,2.6c-11.7,16.7-21.8,34.8-32.7,52
				c-21.8,34.7-43.6,69.4-65.3,104.1s-43.6,69.4-65.3,104.1c-2.1,3.3-4.1,6.6-6.2,9.9C84.9,378.9,79,386.6,79.4,387.6
				C79.4,387.6,79.4,387.6,79.4,387.6z"/>
		</g>
		<g>
			<path class="st2" d="M426.6,173.3C426.6,173.3,426.6,173.3,426.6,173.3c11.2-11,22.4-22,33.6-33c-43-51.6-104-78.2-168-82
				c-70.4-4.3-132.1,23.3-178.2,70.3c-43.4,44.1-65.3,108.2-61.1,169.6c1.1,16.3,4.1,32.6,9,48.2c11-11.3,21.9-22.6,32.9-33.9
				c1.7-1.7,3.3-3.5,4.2-5.7c1.1-2.7,0.7-5.7,0.5-8.6c-4.6-51.3,15.3-104,52-140.2s89.3-55.2,140.7-52
				C343.5,109.2,393,134.3,426.6,173.3z"/>
		</g>
		<g>
			<path class="st2" d="M508.3,319.4c-2.8,16.2-7.4,31.8-13.6,46.7l-310.6-0.9h-1.5l29-46.7h0.4L508.3,319.4z"/>
		</g>
		<g>
			<path class="st2" d="M511.3,271.4H241.5l28.2-46.7H504C508.1,239.7,510.6,255.4,511.3,271.4z"/>
		</g>
		<g>
			<path class="st3" d="M180.4,368.8"/>
		</g>
		<g>
			<path class="st3" d="M269.7,224.7"/>
		</g>
	</g>
</g>
</svg>
