<?xml version="1.0" encoding="utf-8"?>
<!-- Generator: Adobe Illustrator 28.2.0, SVG Export Plug-In . SVG Version: 6.00 Build 0)  -->
<svg version="1.1" id="Layer_1" xmlns="http://www.w3.org/2000/svg" xmlns:xlink="http://www.w3.org/1999/xlink" x="0px" y="0px"
	 viewBox="0 0 484.8 125.4" style="enable-background:new 0 0 484.8 125.4;" xml:space="preserve">
<style type="text/css">
	.st0{fill:#0049E7;}
	.st1{fill:#C236F7;}
	.st2{fill:url(#SVGID_1_);}
	.st3{fill:#FFFFFF;}
</style>
<g>
	<g>
		<g>
			<g>
				<path class="st0" d="M221.4,45.9l-2.8,13.2c-0.8-0.1-1.5-0.2-2.1-0.2c-0.6,0-1.1,0-1.5,0c-5.2,0-9,1.7-11.5,5.1
					c-1.4,1.9-2.5,4.8-3.3,8.8l-5,23.5h-13L192.6,47h12.3l-1.8,8.6c2.7-3.3,4.9-5.5,6.6-6.7c2.9-2,6.2-3,10.1-3c0.2,0,0.4,0,0.6,0
					C220.5,45.8,220.9,45.8,221.4,45.9z"/>
				<path class="st0" d="M229.9,47h13.1l-10.4,49.2h-13.1L229.9,47z M243.6,42.2h-13l2.5-11.8h13L243.6,42.2z"/>
				<path class="st0" d="M296.3,51.6c1,1.7,1.5,3.8,1.4,6.3c-0.1,1.7-0.4,4.1-1.1,7.3l-6.7,31h-13.2l6.6-31.3
					c0.4-1.9,0.4-3.4,0.1-4.6c-0.7-2.3-2.5-3.4-5.6-3.4c-3.6,0-6.3,1.5-8.3,4.4c-1,1.6-1.8,3.4-2.3,5.6l-6.2,29.3h-13l6.2-29.3
					c0.6-2.9,0.8-5,0.5-6.4c-0.6-2.4-2.4-3.6-5.6-3.6c-3.7,0-6.4,1.2-8.2,3.6c-1,1.4-1.7,3.4-2.3,6.1l-6.3,29.6h-13.1L229.9,47h12.5
					l-1.5,7.2c2.1-2.6,4-4.4,5.7-5.5c2.9-1.9,6.3-2.9,10.3-2.9c3.8,0,6.6,0.8,8.6,2.5c1.5,1.5,2.5,3.5,3,5.9c2.3-2.9,4.8-5,7.6-6.4
					c2.9-1.4,6-2,9.3-2c2.2,0,4.2,0.4,6.1,1.3C293.4,48,295,49.5,296.3,51.6z"/>
				<path class="st0" d="M350.1,55.2c1.3,2.9,1.9,6.3,1.6,10.2c-0.1,2.3-0.7,5.5-1.6,9.8h-33.7c-0.9,4.9-0.1,8.4,2.4,10.4
					c1.5,1.2,3.5,1.9,6,1.9c2.6,0,5-0.8,7-2.3c1-0.8,2.1-1.9,3.1-3.4H348c-1,2.9-3.1,5.9-6.5,8.9c-5.2,4.8-11.7,7.2-19.2,7.2
					c-6.3,0-11.4-2-15.3-6.1s-4.9-10.6-3-19.7c1.8-8.5,5.4-15.1,10.6-19.6s11.4-6.8,18.3-6.8c4.1,0,7.6,0.8,10.6,2.3
					C346.5,49.5,348.7,51.9,350.1,55.2z M318.5,66.6h20c0.5-3.4,0-6-1.5-7.7c-1.5-1.8-3.6-2.6-6.3-2.6c-3,0-5.5,0.9-7.5,2.8
					C321.1,60.9,319.6,63.5,318.5,66.6z"/>
				<path class="st0" d="M370.6,29.6h13.7L378.4,57L410,29.6h18L394.8,57l20.4,39.2h-17.9l-14.4-29.1l-8.1,6.8l-4.7,22.3h-13.7
					L370.6,29.6z"/>
				<path class="st0" d="M433.5,47h13.1l-10.4,49.2h-13.1L433.5,47z M447.8,41.1h-13.1l2.5-11.9h13.1L447.8,41.1z"/>
				<path class="st0" d="M452.9,56.6l1.9-9.2h6.9l2.9-13.7h12.7l-2.9,13.7h8l-1.9,9.2h-8l-5.6,26c-0.4,2-0.4,3.3,0,3.8
					c0.4,0.5,1.9,0.7,4.5,0.7c0.4,0,0.8,0,1.2,0c0.4,0,9.7,0,10.2-0.1l-3.4,9.6l-13.7,0.2c-6.1,0.2-10-0.8-11.8-3.2
					c-1.1-1.5-1.4-3.7-0.7-6.8l6.5-30.3H452.9z"/>
			</g>
			<path class="st0" d="M179.1,34.8c-3.2-3.4-8.2-5.1-14.9-5.1h-29l-14.1-0.4c11.4,0.4,12.1,9.2,12.1,9.9c0,0,0,0,0,0l-12.1,57h13.8
				l5.1-23.9h14.1c7.4,0,13.4-1.6,18.1-4.9c4.7-3.3,7.8-8.8,9.5-16.7C183.2,43.5,182.3,38.2,179.1,34.8z M167.8,50.8
				c-0.7,3.5-2.2,6-4.3,7.6c-2.2,1.6-4.9,2.4-8.2,2.4h-13l4.1-19.6h13c3.3,0,5.7,0.7,7.2,2.2C168.2,44.8,168.6,47.3,167.8,50.8z"/>
		</g>
		<path class="st1" d="M243.6,42.2h-13l2.5-11.8h13L243.6,42.2z"/>
		<path class="st1" d="M447.8,41.1h-13l2.5-11.9h13L447.8,41.1z"/>
	</g>
	<g>
		<linearGradient id="SVGID_1_" gradientUnits="userSpaceOnUse" x1="1.1739" y1="63.5" x2="107.5706" y2="63.5">
			<stop  offset="0" style="stop-color:#0049E7"/>
			<stop  offset="0.1105" style="stop-color:#0648E7"/>
			<stop  offset="0.2552" style="stop-color:#1647E9"/>
			<stop  offset="0.419" style="stop-color:#3144EB"/>
			<stop  offset="0.5967" style="stop-color:#5740EE"/>
			<stop  offset="0.7857" style="stop-color:#883BF3"/>
			<stop  offset="0.9815" style="stop-color:#C236F7"/>
			<stop  offset="1" style="stop-color:#C835F8"/>
		</linearGradient>
		<path class="st2" d="M107.6,63.5c0,12.1-4.1,23.3-10.9,32.3c-3,3.9-6.5,7.4-10.4,10.3c-8.9,6.7-19.9,10.6-31.9,10.6
			c-7.8,0-15.2-1.7-21.9-4.7c-4.8-2.2-9.3-5.1-13.2-8.5c-11.1-9.7-18.1-24-18.1-40c0-29.4,23.8-53.2,53.2-53.2
			c12.2,0,23.4,4.1,32.3,10.9c3.5,2.7,6.7,5.8,9.4,9.3C103.3,39.6,107.6,51,107.6,63.5z"/>
		<g>
			<path class="st3" d="M66.1,47.3C65,60,52.2,60.5,52.2,60.5V51c0,0,4.1-1.7,4.3-6.1c0-0.2,0-0.4,0-0.6v-1.9c0-4.6-3.7-8.3-8.3-8.3
				H35.3v47.2l-10-8.2V30.7c0-2.6,2.1-4.7,4.7-4.7h17.4c9.9-0.3,13.4,3.1,13.4,3.1c5.9,5.2,5.8,12.8,5.6,15.6
				C66.3,45.5,66.2,46.4,66.1,47.3z"/>
			<path class="st3" d="M48.6,42.7h-5.1c-2.6,0-4.7,2.1-4.7,4.7v46L50.3,83c0,0,2.5-2.1,5.1-1.1c0,0,2.6,0.6,5.5,4.8
				c2.7,3.8,5.4,7.6,8.1,11.4l3.2,4.4h12L62.4,72.8l21.8-21.8H71.5L48.6,75.2V42.7z"/>
		</g>
	</g>
</g>
</svg>
