<svg width="15" height="15" viewBox="0 0 15 15" fill="none" xmlns="http://www.w3.org/2000/svg">
<path d="M15 7.5C15 3.35938 11.6406 0 7.5 0C3.35938 0 0 3.35938 0 7.5C0 11.6406 3.35938 15 7.5 15C7.54375 15 7.58789 15 7.63164 14.9973V9.16094H6.02031V7.2832H7.63164V5.90039C7.63164 4.29883 8.61055 3.425 10.0398 3.425C10.5226 3.42272 11.0051 3.44711 11.4852 3.49805V5.17383H10.5008C9.72461 5.17383 9.57187 5.54297 9.57187 6.08477V7.28047H11.4324L11.1895 9.1582H9.57031V14.7098C11.1353 14.2603 12.5115 13.3137 13.4911 12.0131C14.4706 10.7124 15.0003 9.12826 15 7.5Z" fill="#448E08"/>
</svg>
