<svg width="15" height="15" viewBox="0 0 15 15" fill="none" xmlns="http://www.w3.org/2000/svg">
<path d="M10.9398 0H4.06018C2.98368 0.00126014 1.95163 0.429483 1.19046 1.19072C0.429294 1.95196 0.00116305 2.98404 0 4.06055V10.9398C0.00125996 12.0163 0.429431 13.0482 1.19059 13.8094C1.95175 14.5706 2.98374 14.9987 4.06018 15H10.9398C12.0163 14.9987 13.0483 14.5706 13.8094 13.8094C14.5706 13.0482 14.9987 12.0163 15 10.9398V4.06055C14.9988 2.98404 14.5707 1.95196 13.8095 1.19072C13.0484 0.429483 12.0163 0.00126014 10.9398 0ZM14.1207 10.9398C14.1194 11.783 13.7838 12.5913 13.1876 13.1876C12.5913 13.7838 11.783 14.1194 10.9398 14.1207H4.06018C3.2169 14.1195 2.40852 13.7839 1.8122 13.1877C1.21588 12.5914 0.880262 11.7831 0.878906 10.9398V4.06055C0.880069 3.21714 1.2156 2.40861 1.81194 1.8122C2.40828 1.21579 3.21678 0.880166 4.06018 0.878906H10.9398C11.7831 0.880262 12.5914 1.21588 13.1877 1.8122C13.7839 2.40852 14.1195 3.2169 14.1207 4.06018V10.9398Z" fill="#448E08"/>
<path d="M7.5 3.39844C6.68879 3.39844 5.89579 3.63899 5.2213 4.08968C4.5468 4.54036 4.02109 5.18094 3.71065 5.9304C3.40022 6.67986 3.31899 7.50455 3.47725 8.30018C3.63551 9.0958 4.02615 9.82663 4.59976 10.4002C5.17337 10.9739 5.9042 11.3645 6.69983 11.5228C7.49545 11.681 8.32014 11.5998 9.0696 11.2894C9.81906 10.9789 10.4596 10.4532 10.9103 9.77871C11.361 9.10421 11.6016 8.31121 11.6016 7.5C11.6004 6.41255 11.1679 5.36998 10.399 4.60104C9.63002 3.8321 8.58745 3.3996 7.5 3.39844ZM7.5 10.7227C6.86262 10.7227 6.23955 10.5337 5.70959 10.1795C5.17963 9.82543 4.76657 9.32212 4.52266 8.73326C4.27874 8.14439 4.21492 7.49643 4.33927 6.87129C4.46362 6.24616 4.77054 5.67194 5.22124 5.22124C5.67194 4.77054 6.24616 4.46361 6.87129 4.33927C7.49643 4.21492 8.1444 4.27874 8.73326 4.52265C9.32212 4.76657 9.82543 5.17963 10.1795 5.70959C10.5337 6.23955 10.7227 6.86262 10.7227 7.5C10.7219 8.35446 10.3821 9.17371 9.77791 9.77791C9.17371 10.3821 8.35447 10.7219 7.5 10.7227Z" fill="#448E08"/>
<path d="M11.6997 1.94092C11.4599 1.94085 11.2255 2.01189 11.0261 2.14505C10.8267 2.27822 10.6713 2.46753 10.5795 2.68903C10.4877 2.91054 10.4637 3.1543 10.5105 3.38947C10.5572 3.62464 10.6727 3.84066 10.8422 4.0102C11.0118 4.17975 11.2278 4.2952 11.463 4.34196C11.6981 4.38872 11.9419 4.36469 12.1634 4.27289C12.3849 4.1811 12.5742 4.02568 12.7074 3.82629C12.8405 3.62689 12.9116 3.39248 12.9115 3.15271C12.911 2.83147 12.7832 2.52353 12.556 2.29638C12.3289 2.06923 12.0209 1.9414 11.6997 1.94092ZM11.6997 3.48523C11.6339 3.48523 11.5697 3.46573 11.515 3.42919C11.4603 3.39265 11.4177 3.34072 11.3925 3.27996C11.3673 3.2192 11.3607 3.15234 11.3736 3.08784C11.3864 3.02334 11.4181 2.96409 11.4646 2.91758C11.5111 2.87108 11.5703 2.83941 11.6348 2.82658C11.6993 2.81375 11.7662 2.82033 11.827 2.8455C11.8877 2.87067 11.9397 2.91329 11.9762 2.96797C12.0127 3.02265 12.0322 3.08694 12.0322 3.15271C12.0321 3.24087 11.9971 3.32539 11.9347 3.38773C11.8724 3.45007 11.7879 3.48513 11.6997 3.48523Z" fill="#448E08"/>
</svg>
