<svg width="15" height="15" viewBox="0 0 15 15" fill="none" xmlns="http://www.w3.org/2000/svg">
<path d="M12.9547 0H2.04531C1.50286 0 0.982628 0.215487 0.599058 0.599058C0.215487 0.982628 0 1.50286 0 2.04531V12.9547C0 13.4971 0.215487 14.0174 0.599058 14.4009C0.982628 14.7845 1.50286 15 2.04531 15H12.9547C13.4971 14.9999 14.0173 14.7844 14.4008 14.4008C14.7844 14.0173 14.9999 13.4971 15 12.9547V2.04531C14.9999 1.50289 14.7844 0.98272 14.4008 0.599172C14.0173 0.215624 13.4971 0.000103564 12.9547 0ZM5.11367 11.8703C5.11383 11.9119 5.10577 11.9531 5.08995 11.9916C5.07414 12.0301 5.05089 12.0651 5.02153 12.0945C4.99217 12.124 4.95728 12.1474 4.91886 12.1633C4.88044 12.1793 4.83925 12.1875 4.79766 12.1875H3.45C3.4083 12.1877 3.36699 12.1796 3.32844 12.1637C3.28988 12.1478 3.25485 12.1244 3.22537 12.0949C3.19588 12.0655 3.17253 12.0304 3.15664 11.9919C3.14076 11.9533 3.13266 11.912 3.13281 11.8703V6.22148C3.13292 6.13743 3.16638 6.05685 3.22585 5.99745C3.28533 5.93805 3.36594 5.90469 3.45 5.90469H4.79766C4.88154 5.90489 4.96192 5.93836 5.02116 5.99775C5.0804 6.05714 5.11367 6.1376 5.11367 6.22148V11.8703ZM4.12305 5.36914C3.87016 5.36914 3.62296 5.29415 3.4127 5.15365C3.20244 5.01314 3.03857 4.81344 2.94182 4.5798C2.84506 4.34616 2.81976 4.08907 2.86913 3.84106C2.91849 3.59304 3.04029 3.36523 3.21914 3.18644C3.39798 3.00765 3.62583 2.88592 3.87386 2.83663C4.12189 2.78734 4.37897 2.81271 4.61258 2.90954C4.8462 3.00637 5.04585 3.1703 5.18628 3.3806C5.32672 3.59091 5.40164 3.83813 5.40156 4.09102C5.40146 4.43003 5.26671 4.75513 5.02696 4.99481C4.7872 5.23449 4.46206 5.36914 4.12305 5.36914ZM12.1566 11.8926C12.1567 11.9309 12.1493 11.9688 12.1347 12.0042C12.1201 12.0396 12.0986 12.0718 12.0715 12.0989C12.0444 12.1259 12.0123 12.1474 11.9769 12.162C11.9415 12.1766 11.9035 12.1841 11.8652 12.184H10.4164C10.3781 12.1841 10.3402 12.1766 10.3048 12.162C10.2694 12.1474 10.2372 12.1259 10.2101 12.0989C10.183 12.0718 10.1616 12.0396 10.147 12.0042C10.1324 11.9688 10.1249 11.9309 10.125 11.8926V9.24648C10.125 8.85078 10.2422 7.51445 9.09101 7.51445C8.20039 7.51445 8.01914 8.42891 7.9832 8.83984V11.8961C7.98321 11.9728 7.95299 12.0464 7.8991 12.1009C7.84521 12.1555 7.77199 12.1866 7.69531 12.1875H6.29648C6.21933 12.1873 6.14541 12.1565 6.09093 12.1019C6.03645 12.0472 6.00586 11.9732 6.00586 11.8961V6.19688C6.00584 6.11957 6.03646 6.0454 6.09102 5.99062C6.11794 5.96357 6.14997 5.94211 6.18523 5.92749C6.2205 5.91288 6.25831 5.90539 6.29648 5.90547H7.69531C7.7726 5.90547 7.84672 5.93617 7.90137 5.99082C7.95602 6.04547 7.98672 6.11959 7.98672 6.19688V6.68945C8.31719 6.19258 8.80703 5.81094 9.85312 5.81094C12.1695 5.81094 12.1543 7.97383 12.1543 9.16211L12.1566 11.8926Z" fill="#448E08"/>
</svg>
