<svg width="13" height="15" viewBox="0 0 13 15" fill="none" xmlns="http://www.w3.org/2000/svg">
<mask id="mask0_147_6891" style="mask-type:luminance" maskUnits="userSpaceOnUse" x="0" y="0" width="13" height="15">
<path d="M12.2148 0H0V15H12.2148V0Z" fill="white"/>
</mask>
<g mask="url(#mask0_147_6891)">
<path d="M6.31135 0C2.19239 0 0 2.63516 0 5.50781C0 6.83984 0.743847 8.50156 1.94066 9.02852C2.28126 9.18164 2.23624 8.99492 2.52791 7.87617C2.54132 7.83142 2.5427 7.78393 2.53191 7.73847C2.52112 7.69302 2.49854 7.65119 2.46644 7.61719C0.758724 5.64648 2.13288 1.59531 6.06823 1.59531C11.7641 1.59531 10.7 9.45899 7.05911 9.45899C6.11951 9.45899 5.42186 8.72383 5.64306 7.81445C5.91124 6.73125 6.43584 5.5668 6.43584 4.78633C6.43584 2.81875 3.4996 3.11094 3.4996 5.71758C3.4996 6.52344 3.7854 7.0668 3.7854 7.0668C3.7854 7.0668 2.83836 10.875 2.66219 11.5867C2.36504 12.7918 2.70134 14.7426 2.73149 14.9105C2.73351 14.9307 2.74172 14.9498 2.75499 14.9652C2.76826 14.9806 2.78596 14.9915 2.80568 14.9965C2.82539 15.0015 2.84617 15.0003 2.86518 14.9931C2.8842 14.9859 2.90053 14.973 2.91197 14.9563C3.00514 14.8344 4.14793 13.2082 4.46817 12.0324C4.58562 11.6027 5.06247 9.8668 5.06247 9.8668C5.37566 10.4344 6.28551 10.9094 7.25486 10.9094C10.1335 10.9094 12.2144 8.38437 12.2144 5.25117C12.2042 2.24766 9.62773 0 6.31135 0Z" fill="#448E08"/>
</g>
</svg>
