<?xml version="1.0" encoding="utf-8"?>
<!-- Generator: Adobe Illustrator 26.0.3, SVG Export Plug-In . SVG Version: 6.00 Build 0)  -->
<svg version="1.1" id="Layer_1" xmlns="http://www.w3.org/2000/svg" xmlns:xlink="http://www.w3.org/1999/xlink" x="0px" y="0px"
	 viewBox="0 0 437.87 159.6" style="enable-background:new 0 0 437.87 159.6;" xml:space="preserve">
<style type="text/css">
	.st0{fill:#FD5009;}
</style>
<path class="st0" d="M426.83,21.83v26.99c-17.16,15.67-36.99,26.23-59.68,31.44c-11.74,2.69-23.61,3.74-35.64,3.73
	c-81.07-0.05-162.15-0.39-243.22,0.13c-30.3,0.2-52.94,15.57-69.46,40.4c-2.84,4.26-5.21,8.82-7.8,13.25v-11.62
	c0-5.74,1.2-11.43,3.56-16.66c0.01-0.03,0.03-0.06,0.04-0.08c0-0.01,0.01-0.01,0.01-0.02c4.44-10.69,12.28-18.59,22.48-24.68
	c16.71-9.98,34.85-14.7,54.2-14.72c80.6-0.06,161.21-0.01,241.82-0.03c27.87-0.01,53.16-7.69,74.86-25.68
	C415.63,37.95,421.84,30.39,426.83,21.83z"/>
</svg>
